<svg id="visual" viewBox="0 0 900 600" width="900" height="600" xmlns="http://www.w3.org/2000/svg" xmlns:xlink="http://www.w3.org/1999/xlink" version="1.1"><path d="M0 131L21.5 134C43 137 86 143 128.8 141.7C171.7 140.3 214.3 131.7 257.2 131.5C300 131.3 343 139.7 385.8 143.3C428.7 147 471.3 146 514.2 143.2C557 140.3 600 135.7 642.8 135.3C685.7 135 728.3 139 771.2 143.7C814 148.3 857 153.7 878.5 156.3L900 159L900 0L878.5 0C857 0 814 0 771.2 0C728.3 0 685.7 0 642.8 0C600 0 557 0 514.2 0C471.3 0 428.7 0 385.8 0C343 0 300 0 257.2 0C214.3 0 171.7 0 128.8 0C86 0 43 0 21.5 0L0 0Z" fill="#001122"></path><path d="M0 127L21.5 124.8C43 122.7 86 118.3 128.8 117.2C171.7 116 214.3 118 257.2 114.8C300 111.7 343 103.3 385.8 101.7C428.7 100 471.3 105 514.2 107.8C557 110.7 600 111.3 642.8 113.5C685.7 115.7 728.3 119.3 771.2 120.2C814 121 857 119 878.5 118L900 117L900 0L878.5 0C857 0 814 0 771.2 0C728.3 0 685.7 0 642.8 0C600 0 557 0 514.2 0C471.3 0 428.7 0 385.8 0C343 0 300 0 257.2 0C214.3 0 171.7 0 128.8 0C86 0 43 0 21.5 0L0 0Z" fill="#002854"></path><path d="M0 78L21.5 75.3C43 72.7 86 67.3 128.8 67.3C171.7 67.3 214.3 72.7 257.2 75C300 77.3 343 76.7 385.8 78.2C428.7 79.7 471.3 83.3 514.2 87.3C557 91.3 600 95.7 642.8 91.3C685.7 87 728.3 74 771.2 71.7C814 69.3 857 77.7 878.5 81.8L900 86L900 0L878.5 0C857 0 814 0 771.2 0C728.3 0 685.7 0 642.8 0C600 0 557 0 514.2 0C471.3 0 428.7 0 385.8 0C343 0 300 0 257.2 0C214.3 0 171.7 0 128.8 0C86 0 43 0 21.5 0L0 0Z" fill="#003d8a"></path><path d="M0 73L21.5 69.3C43 65.7 86 58.3 128.8 52.5C171.7 46.7 214.3 42.3 257.2 40.3C300 38.3 343 38.7 385.8 43.5C428.7 48.3 471.3 57.7 514.2 60.3C557 63 600 59 642.8 55.8C685.7 52.7 728.3 50.3 771.2 48.8C814 47.3 857 46.7 878.5 46.3L900 46L900 0L878.5 0C857 0 814 0 771.2 0C728.3 0 685.7 0 642.8 0C600 0 557 0 514.2 0C471.3 0 428.7 0 385.8 0C343 0 300 0 257.2 0C214.3 0 171.7 0 128.8 0C86 0 43 0 21.5 0L0 0Z" fill="#374fbf"></path><path d="M0 12L21.5 14.5C43 17 86 22 128.8 22.5C171.7 23 214.3 19 257.2 18.2C300 17.3 343 19.7 385.8 20.8C428.7 22 471.3 22 514.2 22.3C557 22.7 600 23.3 642.8 24.8C685.7 26.3 728.3 28.7 771.2 30.2C814 31.7 857 32.3 878.5 32.7L900 33L900 0L878.5 0C857 0 814 0 771.2 0C728.3 0 685.7 0 642.8 0C600 0 557 0 514.2 0C471.3 0 428.7 0 385.8 0C343 0 300 0 257.2 0C214.3 0 171.7 0 128.8 0C86 0 43 0 21.5 0L0 0Z" fill="#715df2"></path></svg>