<svg id="visual" viewBox="0 0 900 600" width="900" height="600" xmlns="http://www.w3.org/2000/svg" xmlns:xlink="http://www.w3.org/1999/xlink" version="1.1"><path d="M0 497L129 466L257 450L386 482L514 508L643 482L771 455L900 508L900 601L771 601L643 601L514 601L386 601L257 601L129 601L0 601Z" fill="#6600ff"></path><path d="M0 501L129 516L257 485L386 485L514 505L643 499L771 525L900 524L900 601L771 601L643 601L514 601L386 601L257 601L129 601L0 601Z" fill="#672bfd"></path><path d="M0 528L129 508L257 545L386 511L514 514L643 506L771 511L900 529L900 601L771 601L643 601L514 601L386 601L257 601L129 601L0 601Z" fill="#6940fa"></path><path d="M0 545L129 537L257 555L386 541L514 546L643 551L771 548L900 547L900 601L771 601L643 601L514 601L386 601L257 601L129 601L0 601Z" fill="#6c50f6"></path><path d="M0 556L129 581L257 583L386 578L514 554L643 584L771 578L900 577L900 601L771 601L643 601L514 601L386 601L257 601L129 601L0 601Z" fill="#715df2"></path></svg>