<svg id="visual" viewBox="0 0 900 600" width="900" height="600" xmlns="http://www.w3.org/2000/svg" xmlns:xlink="http://www.w3.org/1999/xlink" version="1.1"><path d="M0 317L100 317L100 352L200 352L200 329L300 329L300 402L400 402L400 415L500 415L500 349L600 349L600 395L700 395L700 334L800 334L800 406L900 406L900 357L900 601L900 601L800 601L800 601L700 601L700 601L600 601L600 601L500 601L500 601L400 601L400 601L300 601L300 601L200 601L200 601L100 601L100 601L0 601Z" fill="#9900ff"></path><path d="M0 405L100 405L100 393L200 393L200 379L300 379L300 423L400 423L400 435L500 435L500 407L600 407L600 435L700 435L700 399L800 399L800 438L900 438L900 378L900 601L900 601L800 601L800 601L700 601L700 601L600 601L600 601L500 601L500 601L400 601L400 601L300 601L300 601L200 601L200 601L100 601L100 601L0 601Z" fill="#8200d9"></path><path d="M0 491L100 491L100 455L200 455L200 484L300 484L300 443L400 443L400 475L500 475L500 477L600 477L600 490L700 490L700 504L800 504L800 461L900 461L900 451L900 601L900 601L800 601L800 601L700 601L700 601L600 601L600 601L500 601L500 601L400 601L400 601L300 601L300 601L200 601L200 601L100 601L100 601L0 601Z" fill="#6c00b4"></path><path d="M0 501L100 501L100 536L200 536L200 502L300 502L300 511L400 511L400 529L500 529L500 541L600 541L600 500L700 500L700 530L800 530L800 532L900 532L900 540L900 601L900 601L800 601L800 601L700 601L700 601L600 601L600 601L500 601L500 601L400 601L400 601L300 601L300 601L200 601L200 601L100 601L100 601L0 601Z" fill="#560090"></path></svg>