<svg id="visual" viewBox="0 0 900 600" width="900" height="600" xmlns="http://www.w3.org/2000/svg" xmlns:xlink="http://www.w3.org/1999/xlink" version="1.1"><rect x="0" y="0" width="900" height="600" fill="#001220"></rect><path d="M0 467L21.5 466C43 465 86 463 128.8 469C171.7 475 214.3 489 257.2 489.3C300 489.7 343 476.3 385.8 467.8C428.7 459.3 471.3 455.7 514.2 457.8C557 460 600 468 642.8 475.8C685.7 483.7 728.3 491.3 771.2 494.2C814 497 857 495 878.5 494L900 493L900 601L878.5 601C857 601 814 601 771.2 601C728.3 601 685.7 601 642.8 601C600 601 557 601 514.2 601C471.3 601 428.7 601 385.8 601C343 601 300 601 257.2 601C214.3 601 171.7 601 128.8 601C86 601 43 601 21.5 601L0 601Z" fill="#6600ff"></path><path d="M0 485L21.5 486C43 487 86 489 128.8 489.3C171.7 489.7 214.3 488.3 257.2 490.2C300 492 343 497 385.8 501.7C428.7 506.3 471.3 510.7 514.2 510.2C557 509.7 600 504.3 642.8 500.8C685.7 497.3 728.3 495.7 771.2 493.7C814 491.7 857 489.3 878.5 488.2L900 487L900 601L878.5 601C857 601 814 601 771.2 601C728.3 601 685.7 601 642.8 601C600 601 557 601 514.2 601C471.3 601 428.7 601 385.8 601C343 601 300 601 257.2 601C214.3 601 171.7 601 128.8 601C86 601 43 601 21.5 601L0 601Z" fill="#672bfd"></path><path d="M0 512L21.5 515.7C43 519.3 86 526.7 128.8 530C171.7 533.3 214.3 532.7 257.2 529.5C300 526.3 343 520.7 385.8 519.3C428.7 518 471.3 521 514.2 520.2C557 519.3 600 514.7 642.8 511.8C685.7 509 728.3 508 771.2 512.3C814 516.7 857 526.3 878.5 531.2L900 536L900 601L878.5 601C857 601 814 601 771.2 601C728.3 601 685.7 601 642.8 601C600 601 557 601 514.2 601C471.3 601 428.7 601 385.8 601C343 601 300 601 257.2 601C214.3 601 171.7 601 128.8 601C86 601 43 601 21.5 601L0 601Z" fill="#6940fa"></path><path d="M0 529L21.5 529.8C43 530.7 86 532.3 128.8 534.3C171.7 536.3 214.3 538.7 257.2 543.7C300 548.7 343 556.3 385.8 556.2C428.7 556 471.3 548 514.2 544C557 540 600 540 642.8 543.3C685.7 546.7 728.3 553.3 771.2 556.8C814 560.3 857 560.7 878.5 560.8L900 561L900 601L878.5 601C857 601 814 601 771.2 601C728.3 601 685.7 601 642.8 601C600 601 557 601 514.2 601C471.3 601 428.7 601 385.8 601C343 601 300 601 257.2 601C214.3 601 171.7 601 128.8 601C86 601 43 601 21.5 601L0 601Z" fill="#6c50f6"></path><path d="M0 560L21.5 562.3C43 564.7 86 569.3 128.8 571.3C171.7 573.3 214.3 572.7 257.2 570.7C300 568.7 343 565.3 385.8 564.8C428.7 564.3 471.3 566.7 514.2 569.2C557 571.7 600 574.3 642.8 575C685.7 575.7 728.3 574.3 771.2 572.2C814 570 857 567 878.5 565.5L900 564L900 601L878.5 601C857 601 814 601 771.2 601C728.3 601 685.7 601 642.8 601C600 601 557 601 514.2 601C471.3 601 428.7 601 385.8 601C343 601 300 601 257.2 601C214.3 601 171.7 601 128.8 601C86 601 43 601 21.5 601L0 601Z" fill="#715df2"></path></svg>